<svg width="16" height="17" viewBox="0 0 16 17" fill="none" xmlns="http://www.w3.org/2000/svg">
<g clip-path="url(#clip0_3221_7420)">
<path d="M7.99978 1.60767C4.07867 1.60767 0.888672 4.79767 0.888672 8.71878C0.888672 12.6399 4.07867 15.8299 7.99978 15.8299C11.9209 15.8299 15.1109 12.6399 15.1109 8.71878C15.1109 4.79767 11.9209 1.60767 7.99978 1.60767ZM7.58312 5.09812C6.94922 5.07088 6.32172 4.9818 5.72255 4.83694C5.81825 4.61016 5.92209 4.39239 6.03407 4.186C6.49349 3.33943 7.05751 2.74536 7.58312 2.53019V5.09812ZM7.58312 5.9321V8.30211H4.98057C5.01725 7.37709 5.17491 6.4588 5.43566 5.62351C6.12663 5.79755 6.852 5.90291 7.58312 5.9321ZM7.58312 9.13544V11.5054C6.852 11.5346 6.12663 11.64 5.43566 11.8141C5.17491 10.9788 5.01725 10.0605 4.98057 9.13544H7.58312ZM7.58312 12.3394V14.9074C7.05751 14.6922 6.49349 14.0982 6.03407 13.2516C5.92209 13.0452 5.81825 12.8274 5.72255 12.6006C6.32172 12.4558 6.94911 12.3667 7.58312 12.3394ZM8.41645 12.3394C9.05036 12.3667 9.67783 12.4558 10.277 12.6006C10.1813 12.8274 10.0775 13.0452 9.96547 13.2516C9.50609 14.0982 8.94209 14.6922 8.41645 14.9074V12.3394ZM8.41645 11.5054V9.13544H11.019C10.9823 10.0605 10.8247 10.9788 10.5639 11.8141C9.87294 11.64 9.1476 11.5346 8.41645 11.5054ZM8.41645 8.30211V5.9321C9.1476 5.90291 9.87294 5.79755 10.5639 5.62351C10.8247 6.4588 10.9823 7.37709 11.019 8.30211H8.41645ZM8.41645 5.09812V2.53019C8.94209 2.74536 9.50609 3.33943 9.96547 4.186C10.0775 4.39239 10.1813 4.61016 10.277 4.83694C9.67783 4.9818 9.05036 5.07088 8.41645 5.09812ZM10.6979 3.78855C10.4893 3.40399 10.2626 3.06503 10.0237 2.77585C10.8568 3.06036 11.6114 3.51554 12.2461 4.09931C11.8841 4.29321 11.494 4.46161 11.0837 4.60235C10.9672 4.31958 10.8385 4.04755 10.6979 3.78855ZM5.30165 3.78855C5.16103 4.04755 5.03233 4.31958 4.91591 4.60235C4.50553 4.46161 4.11545 4.29311 3.75347 4.09931C4.38813 3.51554 5.1428 3.06036 5.97591 2.77585C5.73698 3.06503 5.51041 3.40389 5.30165 3.78855ZM4.63401 5.38555C4.34961 6.29538 4.1824 7.28725 4.14638 8.30211H1.73622C1.82541 6.94783 2.34549 5.70934 3.16103 4.72344C3.61361 4.98299 4.10927 5.205 4.63401 5.38555ZM4.14638 9.13544C4.1824 10.1504 4.34961 11.1422 4.63401 12.052C4.10927 12.2326 3.61361 12.4546 3.16103 12.7142C2.34549 11.7282 1.82541 10.4897 1.73622 9.13544H4.14638ZM4.91591 12.8352C5.03233 13.118 5.16103 13.39 5.30165 13.649C5.51041 14.0335 5.73698 14.3726 5.97591 14.6617C5.1428 14.3772 4.38813 13.922 3.75358 13.3382C4.11534 13.1445 4.50553 12.9759 4.91591 12.8352ZM10.6979 13.649C10.8385 13.39 10.9672 13.118 11.0837 12.8352C11.494 12.9759 11.8841 13.1445 12.2461 13.3382C11.6114 13.922 10.8568 14.3772 10.0237 14.6617C10.2626 14.3726 10.4891 14.0336 10.6979 13.649ZM11.3656 12.052C11.6499 11.1422 11.8172 10.1503 11.8532 9.13544H14.2633C14.1742 10.4897 13.6541 11.7282 12.8385 12.7142C12.3859 12.4546 11.8903 12.2326 11.3656 12.052ZM11.8532 8.30211C11.8172 7.28713 11.6499 6.29538 11.3656 5.38555C11.8903 5.205 12.3859 4.98299 12.8385 4.72344C13.6541 5.70934 14.1742 6.94783 14.2633 8.30211H11.8532Z" fill="#74767E"/>
</g>
<defs>
<clipPath id="clip0_3221_7420">
<rect width="16" height="16" fill="white" transform="translate(0 0.71875)"/>
</clipPath>
</defs>
</svg>
